<?xml version="1.0" encoding="utf-8"?>
<!-- Generated by Mocodo 4.2.4 -->
<svg width="616" height="548" viewBox="0 0 616 548" xmlns="http://www.w3.org/2000/svg">
<rect x="0" y="0" width="616" height="548" fill="#ffffbf" stroke="none" stroke-width="0"/>

<!-- Association CONTAINS -->
<g>
	<line x1="184" y1="194" x2="50" y2="194" stroke="#66bd63" stroke-width="2"/>
	<line x1="50" y1="68" x2="50" y2="194" stroke="#66bd63" stroke-width="2"/>
	<g>
		<path d="M76 169 a14 14 90 0 1 14 14 V194 h-80 V183 a14 14 90 0 1 14 -14" fill="#a6d96a" stroke="#a6d96a" stroke-width="0"/>
		<path d="M90 194 v11 a14 14 90 0 1 -14 14 H24 a14 14 90 0 1 -14 -14 V194 H80" fill="#d9ef8b" stroke="#d9ef8b" stroke-width="0"/>
		<rect x="10" y="169" width="80" height="50" fill="none" rx="14" stroke="#66bd63" stroke-width="2"/>
		<line x1="10" y1="194" x2="90" y2="194" stroke="#66bd63" stroke-width="1"/>
		<text x="17" y="186.75" fill="#000000" font-family="Verdana" font-size="12">CONTAINS</text>
	</g>
	<text x="95" y="211" fill="#d73027" font-family="Verdana" font-size="12">0,N</text>
	<text x="55" y="144" fill="#d73027" font-family="Verdana" font-size="12">1,N</text>
</g>

<!-- Association CAN_HAVE -->
<g>
	<line x1="317" y1="286" x2="317" y2="194" stroke="#66bd63" stroke-width="2"/>
	<line x1="184" y1="194" x2="317" y2="194" stroke="#66bd63" stroke-width="2"/>
	<g>
		<path d="M342 169 a14 14 90 0 1 14 14 V194 h-78 V183 a14 14 90 0 1 14 -14" fill="#a6d96a" stroke="#a6d96a" stroke-width="0"/>
		<path d="M356 194 v11 a14 14 90 0 1 -14 14 H292 a14 14 90 0 1 -14 -14 V194 H78" fill="#d9ef8b" stroke="#d9ef8b" stroke-width="0"/>
		<rect x="278" y="169" width="78" height="50" fill="none" rx="14" stroke="#66bd63" stroke-width="2"/>
		<line x1="278" y1="194" x2="356" y2="194" stroke="#66bd63" stroke-width="1"/>
		<text x="285" y="186.75" fill="#000000" font-family="Verdana" font-size="12">CAN HAVE</text>
	</g>
	<text x="322" y="236" fill="#d73027" font-family="Verdana" font-size="12">1,1</text>
	<text x="251" y="211" fill="#d73027" font-family="Verdana" font-size="12">1,1</text>
</g>

<!-- Association CAN_HAVE2 -->
<g>
	<line x1="317" y1="286" x2="317" y2="378" stroke="#66bd63" stroke-width="2"/>
	<line x1="317" y1="471" x2="317" y2="378" stroke="#66bd63" stroke-width="2"/>
	<g>
		<path d="M342 353 a14 14 90 0 1 14 14 V378 h-78 V367 a14 14 90 0 1 14 -14" fill="#a6d96a" stroke="#a6d96a" stroke-width="0"/>
		<path d="M356 378 v11 a14 14 90 0 1 -14 14 H292 a14 14 90 0 1 -14 -14 V378 H78" fill="#d9ef8b" stroke="#d9ef8b" stroke-width="0"/>
		<rect x="278" y="353" width="78" height="50" fill="none" rx="14" stroke="#66bd63" stroke-width="2"/>
		<line x1="278" y1="378" x2="356" y2="378" stroke="#66bd63" stroke-width="1"/>
		<text x="285" y="370.75" fill="#000000" font-family="Verdana" font-size="12">CAN HAVE</text>
	</g>
	<text x="322" y="345" fill="#d73027" font-family="Verdana" font-size="12">1,1</text>
	<text x="322" y="421" fill="#d73027" font-family="Verdana" font-size="12">1,1</text>
</g>

<!-- Association CONTAINS2 -->
<g>
	<line x1="317" y1="471" x2="451" y2="471" stroke="#66bd63" stroke-width="2"/>
	<line x1="565" y1="471" x2="451" y2="471" stroke="#66bd63" stroke-width="2"/>
	<g>
		<path d="M477 446 a14 14 90 0 1 14 14 V471 h-80 V460 a14 14 90 0 1 14 -14" fill="#a6d96a" stroke="#a6d96a" stroke-width="0"/>
		<path d="M491 471 v11 a14 14 90 0 1 -14 14 H425 a14 14 90 0 1 -14 -14 V471 H80" fill="#d9ef8b" stroke="#d9ef8b" stroke-width="0"/>
		<rect x="411" y="446" width="80" height="50" fill="none" rx="14" stroke="#66bd63" stroke-width="2"/>
		<line x1="411" y1="471" x2="491" y2="471" stroke="#66bd63" stroke-width="1"/>
		<text x="418" y="463.75" fill="#000000" font-family="Verdana" font-size="12">CONTAINS</text>
	</g>
	<text x="384" y="488" fill="#d73027" font-family="Verdana" font-size="12">0,N</text>
	<text x="496" y="488" fill="#d73027" font-family="Verdana" font-size="12">1,N</text>
</g>

<!-- Entity MOVIE -->
<g>
	<g>
		<rect x="9" y="9" width="82" height="25" fill="#fdae61" stroke="none" stroke-width="0" opacity="1"/>
		<rect x="9" y="34" width="82" height="93" fill="#fee08b" stroke="none" stroke-width="0" opacity="1"/>
		<rect x="9" y="9" width="82" height="118" fill="none" stroke="#f46d43" stroke-width="2" opacity="1"/>
		<line x1="9" y1="34" x2="91" y2="34" stroke="#f46d43" stroke-width="1"/>
	</g>
	<text x="30" y="26.75" fill="#000000" font-family="Verdana" font-size="12">MOVIE</text>
	<text x="14" y="51.8" fill="#000000" font-family="Verdana" font-size="12">id</text>
	<line x1="14" y1="54" x2="26" y2="54" stroke="#000000" stroke-width="1"/>
	<text x="14" y="68.8" fill="#000000" font-family="Verdana" font-size="12">title</text>
	<text x="14" y="85.8" fill="#000000" font-family="Verdana" font-size="12">api_code</text>
	<text x="14" y="102.8" fill="#000000" font-family="Verdana" font-size="12">picture_url</text>
	<text x="14" y="119.8" fill="#000000" font-family="Verdana" font-size="12">released_at</text>
</g>

<!-- Entity MOVIE_LIST_ITEM -->
<g>
	<g>
		<rect x="122" y="152" width="124" height="25" fill="#fdae61" stroke="none" stroke-width="0" opacity="1"/>
		<rect x="122" y="177" width="124" height="59" fill="#fee08b" stroke="none" stroke-width="0" opacity="1"/>
		<rect x="122" y="152" width="124" height="84" fill="none" stroke="#f46d43" stroke-width="2" opacity="1"/>
		<line x1="122" y1="177" x2="246" y2="177" stroke="#f46d43" stroke-width="1"/>
	</g>
	<text x="127" y="169.75" fill="#000000" font-family="Verdana" font-size="12">MOVIE_LIST_ITEM</text>
	<text x="127" y="194.8" fill="#000000" font-family="Verdana" font-size="12">id</text>
	<line x1="127" y1="197" x2="139" y2="197" stroke="#000000" stroke-width="1"/>
	<text x="127" y="211.8" fill="#000000" font-family="Verdana" font-size="12">sorting_order</text>
	<text x="127" y="228.8" fill="#000000" font-family="Verdana" font-size="12">added_at</text>
</g>

<!-- Entity APPUSER -->
<g>
	<g>
		<rect x="281" y="244" width="72" height="25" fill="#fdae61" stroke="none" stroke-width="0" opacity="1"/>
		<rect x="281" y="269" width="72" height="59" fill="#fee08b" stroke="none" stroke-width="0" opacity="1"/>
		<rect x="281" y="244" width="72" height="84" fill="none" stroke="#f46d43" stroke-width="2" opacity="1"/>
		<line x1="281" y1="269" x2="353" y2="269" stroke="#f46d43" stroke-width="1"/>
	</g>
	<text x="289" y="261.75" fill="#000000" font-family="Verdana" font-size="12">APPUSER</text>
	<text x="286" y="286.8" fill="#000000" font-family="Verdana" font-size="12">id</text>
	<line x1="286" y1="289" x2="298" y2="289" stroke="#000000" stroke-width="1"/>
	<text x="286" y="303.8" fill="#000000" font-family="Verdana" font-size="12">username</text>
	<text x="286" y="320.8" fill="#000000" font-family="Verdana" font-size="12">password</text>
</g>

<!-- Entity MUSIC_LIST_ITEM -->
<g>
	<g>
		<rect x="255" y="429" width="124" height="25" fill="#fdae61" stroke="none" stroke-width="0" opacity="1"/>
		<rect x="255" y="454" width="124" height="59" fill="#fee08b" stroke="none" stroke-width="0" opacity="1"/>
		<rect x="255" y="429" width="124" height="84" fill="none" stroke="#f46d43" stroke-width="2" opacity="1"/>
		<line x1="255" y1="454" x2="379" y2="454" stroke="#f46d43" stroke-width="1"/>
	</g>
	<text x="260" y="446.75" fill="#000000" font-family="Verdana" font-size="12">MUSIC_LIST_ITEM</text>
	<text x="260" y="471.8" fill="#000000" font-family="Verdana" font-size="12">id</text>
	<line x1="260" y1="474" x2="272" y2="474" stroke="#000000" stroke-width="1"/>
	<text x="260" y="488.8" fill="#000000" font-family="Verdana" font-size="12">sorting_order</text>
	<text x="260" y="505.8" fill="#000000" font-family="Verdana" font-size="12">added_at</text>
</g>

<!-- Entity MUSIC -->
<g>
	<g>
		<rect x="523" y="403" width="84" height="25" fill="#fdae61" stroke="none" stroke-width="0" opacity="1"/>
		<rect x="523" y="428" width="84" height="111" fill="#fee08b" stroke="none" stroke-width="0" opacity="1"/>
		<rect x="523" y="403" width="84" height="136" fill="none" stroke="#f46d43" stroke-width="2" opacity="1"/>
		<line x1="523" y1="428" x2="607" y2="428" stroke="#f46d43" stroke-width="1"/>
	</g>
	<text x="544" y="420.75" fill="#000000" font-family="Verdana" font-size="12">MUSIC</text>
	<text x="528" y="445.8" fill="#000000" font-family="Verdana" font-size="12">id</text>
	<line x1="528" y1="448" x2="540" y2="448" stroke="#000000" stroke-width="1"/>
	<text x="528" y="462.8" fill="#000000" font-family="Verdana" font-size="12">title</text>
	<text x="528" y="479.8" fill="#000000" font-family="Verdana" font-size="12">artist_name</text>
	<text x="528" y="496.8" fill="#000000" font-family="Verdana" font-size="12">released_at</text>
	<text x="528" y="513.8" fill="#000000" font-family="Verdana" font-size="12">api_code</text>
	<text x="528" y="530.8" fill="#000000" font-family="Verdana" font-size="12">type</text>
</g>
</svg>